<svg aria-hidden="true" style="position: absolute; width: 0; height: 0; overflow: hidden;" version="1.1" xmlns="http://www.w3.org/2000/svg" xmlns:xlink="http://www.w3.org/1999/xlink">
  <defs>
    <symbol id="icon-trash-outline" viewBox="0 0 32 32">
      <path stroke-linejoin="round" stroke-linecap="round" stroke-miterlimit="4" stroke-width="2" d="M7 7l1.25 20c0.059 1.156 0.9 2 2 2h11.5c1.104 0 1.929-0.844 2-2l1.25-20"></path>
      <path stroke-linejoin="miter" stroke-linecap="round" stroke-miterlimit="10" stroke-width="2" d="M5 7h22"></path>
      <path stroke-linejoin="round" stroke-linecap="round" stroke-miterlimit="4" stroke-width="2" d="M12 7v-2.5c0-0.001 0-0.003 0-0.004 0-0.826 0.67-1.496 1.496-1.496 0.002 0 0.003 0 0.005 0h5c0.001 0 0.003 0 0.004 0 0.826 0 1.496 0.67 1.496 1.496 0 0.002 0 0.003 0 0.005v-0 2.5"></path>
      <path stroke-linejoin="round" stroke-linecap="round" stroke-miterlimit="4" stroke-width="2" d="M16 11v14"></path>
      <path stroke-linejoin="round" stroke-linecap="round" stroke-miterlimit="4" stroke-width="2" d="M11.5 11l0.5 14"></path>
      <path stroke-linejoin="round" stroke-linecap="round" stroke-miterlimit="4" stroke-width="2" d="M20.5 11l-0.5 14"></path>
    </symbol>
    <symbol id="icon-pencil-outline" viewBox="0 0 32 32">
      <path stroke-linejoin="round" stroke-linecap="round" stroke-miterlimit="4" stroke-width="2" d="M22.758 7.828l-17.321 17.359-1.438 2.813 2.812-1.438 17.36-17.321-1.414-1.414z"></path>
      <path stroke-linejoin="round" stroke-linecap="round" stroke-miterlimit="4" stroke-width="2" d="M26.293 4.293l-1.414 1.414 1.414 1.414 1.414-1.414c0.181-0.181 0.293-0.431 0.293-0.707s-0.112-0.526-0.293-0.707v0c-0.181-0.181-0.431-0.293-0.707-0.293s-0.526 0.112-0.707 0.293v0z"></path>
    </symbol>
    <symbol id="icon-home-outline" viewBox="0 0 32 32">
      <path stroke-linejoin="round" stroke-linecap="round" stroke-miterlimit="4" stroke-width="2" d="M5 13.25v14.75c0 0.552 0.448 1 1 1v0h6v-8.5c0-0.828 0.672-1.5 1.5-1.5v0h5c0.828 0 1.5 0.672 1.5 1.5v0 8.5h6c0.552 0 1-0.448 1-1v0-14.75"></path>
      <path stroke-linejoin="round" stroke-linecap="round" stroke-miterlimit="4" stroke-width="2" d="M30 16l-13.319-12.75c-0.313-0.33-1.043-0.334-1.361 0l-13.319 12.75"></path>
      <path stroke-linejoin="round" stroke-linecap="round" stroke-miterlimit="4" stroke-width="2" d="M25 11.188v-7.188h-3v4.313"></path>
    </symbol>
    <symbol id="icon-heart-dislike-outline" viewBox="0 0 32 32">
      <path d="M26.115 28c-0 0-0.001 0-0.002 0-0.277 0-0.527-0.113-0.708-0.295l-0-0-22.865-23.001c-0.18-0.181-0.291-0.43-0.291-0.705 0-0.552 0.448-1 1-1 0.277 0 0.528 0.113 0.709 0.295l0 0 22.864 23c0.18 0.181 0.292 0.431 0.292 0.706 0 0.552-0.448 1-1 1-0 0-0.001 0-0.001 0h0z"></path>
      <path d="M22.808 5c-3.006 0-5 1.847-6.058 3.188-1.055-1.343-3.052-3.188-6.058-3.188-0.001 0-0.003 0-0.005 0-0.689 0-1.354 0.104-1.98 0.297l0.048-0.013 1.745 1.716c1.391 0 2.863 0.563 3.996 1.667 0.526 0.513 0.978 1.098 1.339 1.741l0.020 0.039c0.168 0.33 0.505 0.551 0.894 0.551s0.726-0.222 0.891-0.546l0.003-0.006c0.382-0.682 0.834-1.268 1.359-1.78l0.002-0.002c1.133-1.102 2.413-1.664 3.804-1.664 2.697 0 4.914 2.271 4.942 5.063 0.034 3.356-1.422 6.222-3.586 8.72l1.414 1.423c0.188-0.215 0.356-0.415 0.509-0.6 2.5-3.047 3.697-6.175 3.663-9.563-0.039-3.886-3.153-7.043-6.942-7.043z"></path>
      <path d="M16.75 27c-5.476-3.718-11.063-8.4-11-14.938 0.004-0.41 0.055-0.806 0.147-1.185l-0.007 0.036-1.577-1.592c-0.347 0.802-0.552 1.735-0.562 2.714l-0 0.004c-0.034 3.389 1.164 6.517 3.663 9.562 1.173 1.429 3.3 3.716 8.212 7.050 0.315 0.218 0.705 0.349 1.125 0.349s0.81-0.13 1.132-0.353l-0.007 0.004c1.272-0.863 2.356-1.656 3.286-2.382l-1.416-1.426c-0.979 0.756-1.989 1.471-2.995 2.156z"></path>
    </symbol>
    <symbol id="icon-heart-outline" viewBox="0 0 32 32">
      <path stroke-linejoin="round" stroke-linecap="round" stroke-miterlimit="4" stroke-width="2" d="M22.058 5c-4.058 0-6.058 4-6.058 4s-2-4-6.058-4c-3.297 0-5.909 2.759-5.942 6.051-0.069 6.833 5.421 11.692 11.438 15.776 0.158 0.108 0.352 0.173 0.563 0.173s0.405-0.065 0.566-0.175l-0.003 0.002c6.016-4.084 11.506-8.943 11.438-15.776-0.034-3.292-2.645-6.051-5.942-6.051z"></path>
    </symbol>
    <symbol id="icon-filter-outline" viewBox="0 0 32 32">
      <path stroke-linejoin="round" stroke-linecap="round" stroke-miterlimit="4" stroke-width="2" d="M2 9h28"></path>
      <path stroke-linejoin="round" stroke-linecap="round" stroke-miterlimit="4" stroke-width="2" d="M7 16h18"></path>
      <path stroke-linejoin="round" stroke-linecap="round" stroke-miterlimit="4" stroke-width="2" d="M13 23h6"></path>
    </symbol>
    <symbol id="icon-eye-off-outline" viewBox="0 0 32 32">
      <path fill="currentColor" d="M27 28c-0 0-0.001 0-0.002 0-0.276 0-0.525-0.112-0.705-0.293l-22-22c-0.17-0.179-0.275-0.422-0.275-0.689 0-0.552 0.448-1 1-1 0.267 0 0.51 0.105 0.689 0.275l22 22c0.181 0.181 0.293 0.431 0.293 0.707 0 0.552-0.447 1-1 1h-0z"></path>
      <path fill="currentColor" d="M15.979 24c-2.593 0-5.094-0.767-7.432-2.281-2.129-1.375-4.046-3.344-5.544-5.688v-0.005c1.246-1.786 2.611-3.296 4.077-4.513 0.027-0.023 0.045-0.057 0.045-0.096 0-0.034-0.014-0.065-0.036-0.088v0l-1.245-1.243c-0.023-0.023-0.054-0.037-0.089-0.037-0.031 0-0.059 0.011-0.081 0.030l0-0c-1.558 1.313-3.003 2.922-4.317 4.808-0.224 0.318-0.358 0.714-0.358 1.14 0 0.402 0.119 0.775 0.323 1.088l-0.005-0.008c1.651 2.583 3.775 4.759 6.143 6.291 2.666 1.727 5.534 2.602 8.519 2.602 1.697-0.005 3.325-0.293 4.842-0.818l-0.105 0.032c0.050-0.017 0.085-0.064 0.085-0.118 0-0.035-0.014-0.066-0.037-0.088v0l-1.349-1.349c-0.045-0.044-0.107-0.071-0.175-0.071-0.023 0-0.045 0.003-0.067 0.009l0.002-0c-0.958 0.257-2.058 0.404-3.192 0.404-0.002 0-0.004 0-0.006 0h0z"></path>
      <path fill="currentColor" d="M30.677 14.912c-1.654-2.557-3.799-4.73-6.204-6.283-2.661-1.72-5.598-2.629-8.494-2.629-1.678 0.003-3.287 0.297-4.78 0.833l0.099-0.031c-0.049 0.018-0.084 0.064-0.084 0.118 0 0.035 0.014 0.066 0.037 0.089v0l1.347 1.347c0.045 0.044 0.107 0.072 0.175 0.072 0.024 0 0.047-0.003 0.069-0.010l-0.002 0c0.941-0.265 2.022-0.417 3.138-0.418h0c2.543 0 5.036 0.777 7.409 2.313 2.169 1.4 4.109 3.367 5.61 5.688 0.001 0.001 0.002 0.003 0.002 0.005s-0.001 0.004-0.002 0.005v-0c-1.123 1.752-2.451 3.251-3.976 4.52l-0.031 0.025c-0.028 0.023-0.046 0.058-0.046 0.096 0 0.034 0.014 0.065 0.036 0.088v0l1.244 1.243c0.023 0.023 0.054 0.037 0.089 0.037 0.030 0 0.058-0.011 0.080-0.029l-0 0c1.66-1.404 3.080-3.020 4.239-4.82l0.051-0.085c0.198-0.306 0.316-0.68 0.316-1.082 0-0.406-0.12-0.783-0.327-1.099l0.005 0.008z"></path>
      <path fill="currentColor" d="M16 10c-0.001 0-0.002 0-0.003 0-0.472 0-0.932 0.055-1.373 0.158l0.041-0.008c-0.057 0.012-0.1 0.062-0.1 0.122 0 0.035 0.014 0.066 0.037 0.089v0l7.037 7.035c0.023 0.023 0.054 0.037 0.089 0.037 0.060 0 0.11-0.042 0.122-0.099l0-0.001c0.095-0.401 0.15-0.861 0.15-1.334 0-3.314-2.686-6-6-6-0 0-0 0-0 0v0z"></path>
      <path fill="currentColor" d="M10.361 14.604c-0.023-0.023-0.054-0.037-0.089-0.037-0.060 0-0.11 0.042-0.122 0.099l-0 0.001c-0.096 0.402-0.151 0.864-0.151 1.339 0 3.314 2.686 6 6 6 0.475 0 0.937-0.055 1.379-0.159l-0.041 0.008c0.057-0.012 0.1-0.062 0.1-0.122 0-0.035-0.014-0.066-0.037-0.089v0z"></path>
    </symbol>
    <symbol id="icon-eye-outline" viewBox="0 0 32 32">
      <path stroke-linejoin="round" stroke-linecap="round" stroke-miterlimit="4" stroke-width="2" d="M15.979 7c-4.871 0-9.868 2.819-13.802 8.458-0.111 0.159-0.177 0.356-0.177 0.568 0 0.202 0.060 0.389 0.162 0.547l-0.002-0.004c3.023 4.731 7.953 8.431 13.819 8.431 5.803 0 10.834-3.711 13.862-8.453 0.101-0.154 0.16-0.343 0.16-0.546s-0.060-0.392-0.163-0.55l0.002 0.004c-3.035-4.688-8.103-8.455-13.862-8.455z"></path>
      <path stroke-linejoin="miter" stroke-linecap="butt" stroke-miterlimit="10" stroke-width="2" d="M21 16c0 2.761-2.239 5-5 5s-5-2.239-5-5c0-2.761 2.239-5 5-5s5 2.239 5 5z"></path>
    </symbol>
    <symbol id="icon-cloud-upload-outline" viewBox="0 0 32 32">
      <path stroke-linejoin="round" stroke-linecap="round" stroke-miterlimit="4" stroke-width="2" d="M20 22.987h4.75c3.438 0 6.25-1.826 6.25-5.225s-3.313-5.092-6-5.225c-0.556-5.316-4.438-8.55-9-8.55-4.313 0-7.090 2.862-8 5.7-3.75 0.356-7 2.742-7 6.65s3.375 6.65 7.5 6.65h3.5"></path>
      <path stroke-linejoin="round" stroke-linecap="round" stroke-miterlimit="4" stroke-width="2" d="M20 15.987l-4-4-4 4"></path>
      <path stroke-linejoin="round" stroke-linecap="round" stroke-miterlimit="4" stroke-width="2" d="M16 28.013v-15.026"></path>
    </symbol>
    <symbol id="icon-checkmark-done-outline" viewBox="0 0 32 32">
      <path stroke-linejoin="round" stroke-linecap="round" stroke-miterlimit="4" stroke-width="2" d="M29 8l-14 16-6-6"></path>
      <path stroke-linejoin="round" stroke-linecap="round" stroke-miterlimit="4" stroke-width="2" d="M9 24l-6-6"></path>
      <path stroke-linejoin="round" stroke-linecap="round" stroke-miterlimit="4" stroke-width="2" d="M23 8l-8.5 9.75"></path>
    </symbol>
    <symbol id="icon-car-outline" viewBox="0 0 32 32">
      <path stroke-linejoin="round" stroke-linecap="round" stroke-miterlimit="4" stroke-width="2" d="M5 14l2.361-5.509c0.384-0.897 1.364-1.491 2.458-1.491h12.361c1.094 0 2.074 0.594 2.458 1.491l2.361 5.509"></path>
      <path stroke-linejoin="round" stroke-linecap="round" stroke-miterlimit="4" stroke-width="2" d="M5 14h22v9h-22v-9z"></path>
      <path stroke-linejoin="round" stroke-linecap="round" stroke-miterlimit="4" stroke-width="2" d="M7 23v2h-2v-2"></path>
      <path stroke-linejoin="round" stroke-linecap="round" stroke-miterlimit="4" stroke-width="2" d="M27 23v2h-2v-2"></path>
      <path stroke-linejoin="round" stroke-linecap="round" stroke-miterlimit="4" stroke-width="2" d="M10 18c0 0.552-0.448 1-1 1s-1-0.448-1-1c0-0.552 0.448-1 1-1s1 0.448 1 1z"></path>
      <path stroke-linejoin="round" stroke-linecap="round" stroke-miterlimit="4" stroke-width="2" d="M24 18c0 0.552-0.448 1-1 1s-1-0.448-1-1c0-0.552 0.448-1 1-1s1 0.448 1 1z"></path>
    </symbol>
    <symbol id="icon-calendar-outline" viewBox="0 0 32 32">
      <path fill="none" stroke-linejoin="round" stroke-linecap="butt" stroke-miterlimit="4" stroke-width="2" d="M6 5h20c1.657 0 3 1.343 3 3v18c0 1.657-1.343 3-3 3h-20c-1.657 0-3-1.343-3-3v-18c0-1.657 1.343-3 3-3z"></path>
      <path d="M24.864 5h-17.727c-2.281 0-4.136 1.884-4.136 4.2v3.8h1c0-1 1-2 2-2h20c1 0 2 1 2 2h1v-3.8c0-2.316-1.856-4.2-4.136-4.2z"></path>
      <path d="M20 14.5c0 0.828-0.672 1.5-1.5 1.5s-1.5-0.672-1.5-1.5c0-0.828 0.672-1.5 1.5-1.5s1.5 0.672 1.5 1.5z"></path>
      <path d="M25 14.5c0 0.828-0.672 1.5-1.5 1.5s-1.5-0.672-1.5-1.5c0-0.828 0.672-1.5 1.5-1.5s1.5 0.672 1.5 1.5z"></path>
      <path d="M20 19.5c0 0.828-0.672 1.5-1.5 1.5s-1.5-0.672-1.5-1.5c0-0.828 0.672-1.5 1.5-1.5s1.5 0.672 1.5 1.5z"></path>
      <path d="M25 19.5c0 0.828-0.672 1.5-1.5 1.5s-1.5-0.672-1.5-1.5c0-0.828 0.672-1.5 1.5-1.5s1.5 0.672 1.5 1.5z"></path>
      <path d="M10 19.5c0 0.828-0.672 1.5-1.5 1.5s-1.5-0.672-1.5-1.5c0-0.828 0.672-1.5 1.5-1.5s1.5 0.672 1.5 1.5z"></path>
      <path d="M15 19.5c0 0.828-0.672 1.5-1.5 1.5s-1.5-0.672-1.5-1.5c0-0.828 0.672-1.5 1.5-1.5s1.5 0.672 1.5 1.5z"></path>
      <path d="M10 24.5c0 0.828-0.672 1.5-1.5 1.5s-1.5-0.672-1.5-1.5c0-0.828 0.672-1.5 1.5-1.5s1.5 0.672 1.5 1.5z"></path>
      <path d="M15 24.5c0 0.828-0.672 1.5-1.5 1.5s-1.5-0.672-1.5-1.5c0-0.828 0.672-1.5 1.5-1.5s1.5 0.672 1.5 1.5z"></path>
      <path d="M20 24.5c0 0.828-0.672 1.5-1.5 1.5s-1.5-0.672-1.5-1.5c0-0.828 0.672-1.5 1.5-1.5s1.5 0.672 1.5 1.5z"></path>
      <path fill="none" stroke-linejoin="round" stroke-linecap="round" stroke-miterlimit="4" stroke-width="2" d="M8 3v2"></path>
      <path fill="none" stroke-linejoin="round" stroke-linecap="round" stroke-miterlimit="4" stroke-width="2" d="M24 3v2"></path>
    </symbol>
    <symbol id="icon-call-outline" viewBox="0 0 32 32">
      <path stroke-linejoin="miter" stroke-linecap="butt" stroke-miterlimit="10" stroke-width="2" d="M28.188 23.375c-0.992-1-3.396-2.459-4.563-3.047-1.519-0.765-1.644-0.828-2.837 0.059-0.796 0.592-1.326 1.121-2.258 0.922s-2.957-1.319-4.73-3.087-2.959-3.851-3.158-4.78 0.338-1.452 0.924-2.25c0.826-1.125 0.764-1.313 0.057-2.831-0.551-1.181-2.053-3.563-3.056-4.55-1.074-1.061-1.074-0.873-1.766-0.586-0.622 0.264-1.152 0.552-1.651 0.884l0.037-0.023c-1 0.664-1.555 1.216-1.943 2.046s-0.563 2.774 1.442 6.415 3.411 5.503 6.321 8.406 5.149 4.463 8.421 6.298c4.047 2.267 5.6 1.825 6.432 1.438s1.386-0.938 2.052-1.938c0.31-0.462 0.598-0.992 0.838-1.548l0.025-0.065c0.288-0.689 0.476-0.689-0.587-1.762z"></path>
    </symbol>
    <symbol id="icon-build-outline" viewBox="0 0 32 32">
      <path fill="none" stroke-linejoin="miter" stroke-linecap="round" stroke-miterlimit="10" stroke-width="2" d="M24.617 11.875c-0.363 0.36-0.862 0.583-1.414 0.583s-1.051-0.223-1.414-0.583l-1.661-1.661c-0.361-0.363-0.584-0.862-0.584-1.414s0.223-1.052 0.584-1.414l3.759-3.761c0.012-0.011 0.019-0.027 0.019-0.045 0-0.026-0.015-0.048-0.038-0.057l-0-0c-2.426-1.040-5.572-0.51-7.569 1.473-1.911 1.897-2.020 4.75-1.32 7.24 0.047 0.162 0.074 0.348 0.074 0.54 0 0.578-0.246 1.099-0.639 1.464l-0.001 0.001-10.412 9.509c-0.623 0.554-1.013 1.358-1.013 2.253 0 1.663 1.348 3.011 3.011 3.011 0.895 0 1.699-0.39 2.25-1.010l0.003-0.003 9.616-10.438c0.365-0.393 0.885-0.638 1.462-0.638 0.182 0 0.359 0.024 0.527 0.070l-0.014-0.003c2.471 0.662 5.284 0.538 7.17-1.324 2.031-2 2.469-5.535 1.484-7.558-0.011-0.021-0.032-0.034-0.056-0.034-0.017 0-0.033 0.007-0.044 0.018v0z"></path>
      <path d="M7 26c0 0.552-0.448 1-1 1s-1-0.448-1-1c0-0.552 0.448-1 1-1s1 0.448 1 1z"></path>
    </symbol>
    <symbol id="icon-close-outline" viewBox="0 0 32 32">
      <path stroke-linejoin="round" stroke-linecap="round" stroke-miterlimit="4" stroke-width="2" d="M23 23l-14-14"></path>
      <path stroke-linejoin="round" stroke-linecap="round" stroke-miterlimit="4" stroke-width="2" d="M23 9l-14 14"></path>
    </symbol>
    <symbol id="icon-information-circle-outline" viewBox="0 0 32 32">
      <path fill="none" stroke-linejoin="miter" stroke-linecap="butt" stroke-miterlimit="10" stroke-width="2" d="M15.5 4c-6.351 0-11.5 5.149-11.5 11.5s5.149 11.5 11.5 11.5 11.5-5.149 11.5-11.5-5.149-11.5-11.5-11.5z"></path>
      <path fill="none" stroke-linejoin="round" stroke-linecap="round" stroke-miterlimit="4" stroke-width="2" d="M13.75 13.75h2v7.25"></path>
      <path fill="none" stroke-linejoin="miter" stroke-linecap="round" stroke-miterlimit="10" stroke-width="2" d="M13 21.25h5.5"></path>
      <path d="M15.5 8.125c-0.897 0-1.625 0.728-1.625 1.625s0.728 1.625 1.625 1.625c0.897 0 1.625-0.728 1.625-1.625v0c0-0.897-0.728-1.625-1.625-1.625v0z"></path>
    </symbol>
    <symbol id="icon-chevron-down-outline" viewBox="0 0 32 32">
      <path stroke-linejoin="round" stroke-linecap="round" stroke-miterlimit="4" stroke-width="3" d="M7 11.5l9 9 9-9"></path>
    </symbol>
    <symbol id="icon-add-outline" viewBox="0 0 32 32">
      <path stroke-linejoin="round" stroke-linecap="round" stroke-miterlimit="4" stroke-width="2" d="M16 7v18"></path>
      <path stroke-linejoin="round" stroke-linecap="round" stroke-miterlimit="4" stroke-width="2" d="M25 16h-18"></path>
    </symbol>
    <symbol id="icon-chevron-back-outline" viewBox="0 0 32 32">
      <path stroke-linejoin="round" stroke-linecap="round" stroke-miterlimit="4" stroke-width="3" d="M20.5 7l-9 9 9 9"></path>
    </symbol>
    <symbol id="icon-people-outline" viewBox="0 0 32 32">
      <path stroke-linejoin="round" stroke-linecap="round" stroke-miterlimit="4" stroke-width="2" d="M25.125 10.5c-0.183 2.542-2.069 4.5-4.125 4.5s-3.945-1.957-4.125-4.5c-0.188-2.644 1.648-4.5 4.125-4.5s4.313 1.904 4.125 4.5z"></path>
      <path stroke-linejoin="miter" stroke-linecap="butt" stroke-miterlimit="10" stroke-width="2" d="M21 19c-4.073 0-7.99 2.023-8.971 5.963-0.13 0.521 0.197 1.037 0.732 1.037h16.478c0.536 0 0.861-0.516 0.733-1.037-0.981-4.003-4.898-5.963-8.972-5.963z"></path>
      <path stroke-linejoin="round" stroke-linecap="round" stroke-miterlimit="4" stroke-width="2" d="M12.5 11.621c-0.146 2.030-1.67 3.629-3.313 3.629s-3.169-1.598-3.313-3.629c-0.149-2.112 1.334-3.621 3.313-3.621s3.462 1.548 3.313 3.621z"></path>
      <path stroke-linejoin="miter" stroke-linecap="round" stroke-miterlimit="10" stroke-width="2" d="M12.875 19.125c-1.128-0.517-2.371-0.716-3.688-0.716-3.25 0-6.381 1.616-7.166 4.762-0.103 0.416 0.158 0.828 0.586 0.828h7.018"></path>
    </symbol>
    <symbol id="icon-menu-outline" viewBox="0 0 32 32">
      <path stroke-linejoin="miter" stroke-linecap="round" stroke-miterlimit="10" stroke-width="2" d="M5 10h22"></path>
      <path stroke-linejoin="miter" stroke-linecap="round" stroke-miterlimit="10" stroke-width="2" d="M5 16h22"></path>
      <path stroke-linejoin="miter" stroke-linecap="round" stroke-miterlimit="10" stroke-width="2" d="M5 22h22"></path>
    </symbol>
    <symbol id="icon-receipt-outline" viewBox="0 0 32 32">
      <path stroke-linejoin="round" stroke-linecap="butt" stroke-miterlimit="4" stroke-width="2" d="M10 21v-18l2 1 2-1 1.996 1 2.023-1 1.981 1 1.987-1 1.996 1 2.017-1 2.001 1 1.999-1v14"></path>
      <path stroke-linejoin="round" stroke-linecap="butt" stroke-miterlimit="4" stroke-width="2" d="M30 17v7c0 2.761-2.239 5-5 5v0 0c-2.761 0-5-2.239-5-5v0-3h-17c-0.003-0-0.006-0-0.009-0-0.547 0-0.991 0.444-0.991 0.991 0 0.003 0 0.006 0 0.009v-0c0 4 0.421 7 5 7h18"></path>
      <path stroke-linejoin="round" stroke-linecap="round" stroke-miterlimit="4" stroke-width="2" d="M14 9h12"></path>
      <path stroke-linejoin="round" stroke-linecap="round" stroke-miterlimit="4" stroke-width="2" d="M18 14h8"></path>
    </symbol>
    <symbol id="icon-ellipsis-vertical-outline" viewBox="0 0 32 32">
      <path stroke-linejoin="miter" stroke-linecap="butt" stroke-miterlimit="10" stroke-width="2" d="M18 16c0 1.105-0.895 2-2 2s-2-0.895-2-2c0-1.105 0.895-2 2-2s2 0.895 2 2z"></path>
      <path stroke-linejoin="miter" stroke-linecap="butt" stroke-miterlimit="10" stroke-width="2" d="M18 26c0 1.105-0.895 2-2 2s-2-0.895-2-2c0-1.105 0.895-2 2-2s2 0.895 2 2z"></path>
      <path stroke-linejoin="miter" stroke-linecap="butt" stroke-miterlimit="10" stroke-width="2" d="M18 6c0 1.105-0.895 2-2 2s-2-0.895-2-2c0-1.105 0.895-2 2-2s2 0.895 2 2z"></path>
    </symbol>
    <symbol id="icon-checkmark-outline" viewBox="0 0 32 32">
      <path stroke-linejoin="round" stroke-linecap="round" stroke-miterlimit="4" stroke-width="2" d="M26 8l-14 16-6-6"></path>
    </symbol>
    <symbol id="icon-clipboard-outline" viewBox="0 0 32 32">
      <path stroke-linejoin="round" stroke-linecap="butt" stroke-miterlimit="4" stroke-width="2" d="M21 4h2c1.657 0 3 1.343 3 3v0 20c0 1.657-1.343 3-3 3v0h-14c-1.657 0-3-1.343-3-3v0-20c0-1.657 1.343-3 3-3v0h2"></path>
      <path stroke-linejoin="round" stroke-linecap="butt" stroke-miterlimit="4" stroke-width="2" d="M12.633 2h6.734c0.902 0 1.633 0.731 1.633 1.633v0.734c0 0.902-0.731 1.633-1.633 1.633h-6.734c-0.902 0-1.633-0.731-1.633-1.633v-0.734c0-0.902 0.731-1.633 1.633-1.633z"></path>
    </symbol>
    <symbol id="icon-basket-outline" viewBox="0 0 32 32">
      <path stroke-linejoin="round" stroke-linecap="butt" stroke-miterlimit="4" stroke-width="2" d="M4.275 12c-0 0-0.001 0-0.001 0-0.7 0-1.267 0.564-1.274 1.262v0.001c-0 0.004-0 0.008-0 0.013 0 0.118 0.018 0.232 0.052 0.339l-0.002-0.008 3.231 11.394c0.309 1.073 1.282 1.844 2.434 1.844 0.003 0 0.007 0 0.010-0h14.549c0.001 0 0.001 0 0.002 0 1.158 0 2.136-0.77 2.449-1.826l0.005-0.018 3.231-11.394 0.038-0.344c-0.006-0.699-0.574-1.262-1.274-1.262-0 0-0.001 0-0.001 0h-23.45zM16.358 22.004c-1.447-0.007-2.616-1.182-2.616-2.629 0-1.452 1.177-2.629 2.629-2.629s2.629 1.177 2.629 2.629v0c-0.007 1.454-1.187 2.629-2.642 2.629-0 0-0 0-0.001 0h0z"></path>
      <path stroke-linejoin="round" stroke-linecap="butt" stroke-miterlimit="4" stroke-width="2" d="M10 12l6-8 6 8"></path>
    </symbol>
    <symbol id="icon-boat-outline" viewBox="0 0 32 32">
      <path fill="none" stroke-linejoin="miter" stroke-linecap="butt" stroke-miterlimit="10" stroke-width="2" d="M28.871 16.316c-0.125-0.297-0.419-0.489-0.729-0.593l-11.699-4.655c-0.132-0.043-0.285-0.068-0.443-0.068s-0.31 0.025-0.453 0.070l0.011-0.003-11.688 4.658c-0.313 0.098-0.614 0.298-0.738 0.596s-0.184 0.586-0.063 0.942l2.908 7.447c0.071 0.172 0.238 0.291 0.432 0.291 0.012 0 0.024-0 0.036-0.001l-0.002 0c1.668-0.105 3.144-0.952 4.274-2.031 0.085-0.080 0.201-0.13 0.328-0.13s0.242 0.049 0.328 0.13l-0-0c1.207 1.156 2.814 2.031 4.627 2.031s3.41-0.875 4.618-2.034c0.086-0.080 0.201-0.13 0.328-0.13s0.243 0.049 0.328 0.13l-0-0c1.129 1.080 2.606 1.929 4.274 2.034 0.011 0.001 0.023 0.001 0.035 0.001 0.194 0 0.36-0.118 0.43-0.286l0.001-0.003 2.919-7.448c0.124-0.299 0.062-0.651-0.062-0.949z"></path>
      <path d="M26 29.571c-0-0.161-0.089-0.301-0.22-0.374l-0.002-0.001c-1.692-0.909-3.236-2.301-3.914-3-0.115-0.12-0.276-0.195-0.455-0.195-0.127 0-0.244 0.037-0.343 0.102l0.002-0.001c-3.146 2.026-6.976 2.027-10.122 0.003-0.097-0.063-0.215-0.101-0.342-0.101-0.181 0-0.344 0.076-0.459 0.198l-0 0c-0.673 0.705-2.199 2.081-3.902 2.984-0.135 0.069-0.228 0.201-0.243 0.356l-0 0.002c-0.001 0.010-0.001 0.021-0.001 0.033 0 0.232 0.188 0.421 0.421 0.421 0.027 0 0.053-0.003 0.078-0.007l-0.003 0c1.303-0.261 2.563-0.855 3.763-1.489 0.074-0.040 0.161-0.063 0.254-0.063 0.090 0 0.175 0.022 0.249 0.060l-0.003-0.001c1.526 0.793 3.333 1.258 5.247 1.258s3.719-0.465 5.31-1.287l-0.065 0.030c0.073-0.038 0.158-0.060 0.249-0.060 0.094 0 0.182 0.023 0.259 0.065l-0.003-0.001c1.194 0.625 2.451 1.224 3.75 1.488 0.023 0.005 0.050 0.007 0.077 0.007 0.232 0 0.42-0.188 0.42-0.42 0-0.002-0-0.005-0-0.007v0z"></path>
      <path fill="none" stroke-linejoin="round" stroke-linecap="round" stroke-miterlimit="4" stroke-width="2" d="M20 6v-1.5c-0.002-0.827-0.673-1.498-1.5-1.5h-5c-0.827 0.002-1.498 0.673-1.5 1.5v1.5"></path>
      <path fill="none" stroke-linejoin="round" stroke-linecap="round" stroke-miterlimit="4" stroke-width="2" d="M26 14.563v-5.563c-0.005-1.655-1.345-2.995-3-3h-14c-1.655 0.005-2.995 1.345-3 3v5.75"></path>
      <path fill="none" stroke-linejoin="round" stroke-linecap="round" stroke-miterlimit="4" stroke-width="2" d="M16 11.475v13.303"></path>
    </symbol>
    <symbol id="icon-bulb-outline" viewBox="0 0 32 32">
      <path stroke-linejoin="round" stroke-linecap="round" stroke-miterlimit="4" stroke-width="2" d="M19 24v-1.5c0-1.813 1.971-3.527 3.25-4.75 1.802-1.723 2.75-4.038 2.75-6.75 0-5-3.983-9-9-9-0.007-0-0.016-0-0.025-0-4.957 0-8.975 4.018-8.975 8.975 0 0.009 0 0.018 0 0.026v-0.001c0 2.615 0.988 5.087 2.75 6.75 1.272 1.201 3.25 2.919 3.25 4.75v1.5"></path>
      <path stroke-linejoin="round" stroke-linecap="round" stroke-miterlimit="4" stroke-width="2" d="M14 30h4"></path>
      <path stroke-linejoin="round" stroke-linecap="round" stroke-miterlimit="4" stroke-width="2" d="M13 27h6"></path>
      <path stroke-linejoin="round" stroke-linecap="round" stroke-miterlimit="4" stroke-width="2" d="M16 24v-8"></path>
      <path stroke-linejoin="round" stroke-linecap="round" stroke-miterlimit="4" stroke-width="2" d="M18.375 15s-1.344 1-2.375 1-2.375-1-2.375-1"></path>
    </symbol>
    <symbol id="icon-book-outline" viewBox="0 0 32 32">
      <path stroke-linejoin="round" stroke-linecap="round" stroke-miterlimit="4" stroke-width="2" d="M16 10c1-3.947 4.777-5.963 13-6 0.001 0 0.002 0 0.004 0 0.55 0 0.996 0.446 0.996 0.996 0 0.001 0 0.003 0 0.004v-0 18c0 0.552-0.448 1-1 1v0c-8 0-11.091 1.613-13 4-1.898-2.375-5-4-13-4-0.618 0-1-0.503-1-1.121v-17.879c0-0.001 0-0.002 0-0.004 0-0.55 0.446-0.996 0.996-0.996 0.001 0 0.003 0 0.004 0h-0c8.223 0.037 12 2.053 13 6z"></path>
      <path stroke-linejoin="round" stroke-linecap="round" stroke-miterlimit="4" stroke-width="2" d="M16 10v18"></path>
    </symbol>
    <symbol id="icon-list-outline" viewBox="0 0 32 32">
      <path stroke-linejoin="round" stroke-linecap="round" stroke-miterlimit="4" stroke-width="2" d="M10 9h18"></path>
      <path stroke-linejoin="round" stroke-linecap="round" stroke-miterlimit="4" stroke-width="2" d="M10 16h18"></path>
      <path stroke-linejoin="round" stroke-linecap="round" stroke-miterlimit="4" stroke-width="2" d="M10 23h18"></path>
      <path stroke-linejoin="round" stroke-linecap="round" stroke-miterlimit="4" stroke-width="2" d="M6 9c0 0.552-0.448 1-1 1s-1-0.448-1-1c0-0.552 0.448-1 1-1s1 0.448 1 1z"></path>
      <path stroke-linejoin="round" stroke-linecap="round" stroke-miterlimit="4" stroke-width="2" d="M6 16c0 0.552-0.448 1-1 1s-1-0.448-1-1c0-0.552 0.448-1 1-1s1 0.448 1 1z"></path>
      <path stroke-linejoin="round" stroke-linecap="round" stroke-miterlimit="4" stroke-width="2" d="M6 23c0 0.552-0.448 1-1 1s-1-0.448-1-1c0-0.552 0.448-1 1-1s1 0.448 1 1z"></path>
    </symbol>
  </defs>
</svg>
