<svg aria-hidden="true" style="position: absolute; width: 0; height: 0; overflow: hidden;" version="1.1" xmlns="http://www.w3.org/2000/svg" xmlns:xlink="http://www.w3.org/1999/xlink">
<defs>
<symbol id="icon-chevron-down-outline" viewBox="0 0 32 32">
<path stroke-linejoin="round" stroke-linecap="round" stroke-miterlimit="4" stroke-width="3" d="M7 11.5l9 9 9-9"></path>
</symbol>
<symbol id="icon-add-outline" viewBox="0 0 32 32">
<path stroke-linejoin="round" stroke-linecap="round" stroke-miterlimit="4" stroke-width="2" d="M16 7v18"></path>
<path stroke-linejoin="round" stroke-linecap="round" stroke-miterlimit="4" stroke-width="2" d="M25 16h-18"></path>
</symbol>
<symbol id="icon-chevron-back-outline" viewBox="0 0 32 32">
<path stroke-linejoin="round" stroke-linecap="round" stroke-miterlimit="4" stroke-width="3" d="M20.5 7l-9 9 9 9"></path>
</symbol>
<symbol id="icon-people-outline" viewBox="0 0 32 32">
<path stroke-linejoin="round" stroke-linecap="round" stroke-miterlimit="4" stroke-width="2" d="M25.125 10.5c-0.183 2.542-2.069 4.5-4.125 4.5s-3.945-1.957-4.125-4.5c-0.188-2.644 1.648-4.5 4.125-4.5s4.313 1.904 4.125 4.5z"></path>
<path stroke-linejoin="miter" stroke-linecap="butt" stroke-miterlimit="10" stroke-width="2" d="M21 19c-4.073 0-7.99 2.023-8.971 5.963-0.13 0.521 0.197 1.037 0.732 1.037h16.478c0.536 0 0.861-0.516 0.733-1.037-0.981-4.003-4.898-5.963-8.972-5.963z"></path>
<path stroke-linejoin="round" stroke-linecap="round" stroke-miterlimit="4" stroke-width="2" d="M12.5 11.621c-0.146 2.030-1.67 3.629-3.313 3.629s-3.169-1.598-3.313-3.629c-0.149-2.112 1.334-3.621 3.313-3.621s3.462 1.548 3.313 3.621z"></path>
<path stroke-linejoin="miter" stroke-linecap="round" stroke-miterlimit="10" stroke-width="2" d="M12.875 19.125c-1.128-0.517-2.371-0.716-3.688-0.716-3.25 0-6.381 1.616-7.166 4.762-0.103 0.416 0.158 0.828 0.586 0.828h7.018"></path>
</symbol>
<symbol id="icon-menu-outline" viewBox="0 0 32 32">
<path stroke-linejoin="miter" stroke-linecap="round" stroke-miterlimit="10" stroke-width="2" d="M5 10h22"></path>
<path stroke-linejoin="miter" stroke-linecap="round" stroke-miterlimit="10" stroke-width="2" d="M5 16h22"></path>
<path stroke-linejoin="miter" stroke-linecap="round" stroke-miterlimit="10" stroke-width="2" d="M5 22h22"></path>
</symbol>
<symbol id="icon-receipt-outline" viewBox="0 0 32 32">
<path stroke-linejoin="round" stroke-linecap="butt" stroke-miterlimit="4" stroke-width="2" d="M10 21v-18l2 1 2-1 1.996 1 2.023-1 1.981 1 1.987-1 1.996 1 2.017-1 2.001 1 1.999-1v14"></path>
<path stroke-linejoin="round" stroke-linecap="butt" stroke-miterlimit="4" stroke-width="2" d="M30 17v7c0 2.761-2.239 5-5 5v0 0c-2.761 0-5-2.239-5-5v0-3h-17c-0.003-0-0.006-0-0.009-0-0.547 0-0.991 0.444-0.991 0.991 0 0.003 0 0.006 0 0.009v-0c0 4 0.421 7 5 7h18"></path>
<path stroke-linejoin="round" stroke-linecap="round" stroke-miterlimit="4" stroke-width="2" d="M14 9h12"></path>
<path stroke-linejoin="round" stroke-linecap="round" stroke-miterlimit="4" stroke-width="2" d="M18 14h8"></path>
</symbol>
<symbol id="icon-ellipsis-vertical-outline" viewBox="0 0 32 32">
<path stroke-linejoin="miter" stroke-linecap="butt" stroke-miterlimit="10" stroke-width="2" d="M18 16c0 1.105-0.895 2-2 2s-2-0.895-2-2c0-1.105 0.895-2 2-2s2 0.895 2 2z"></path>
<path stroke-linejoin="miter" stroke-linecap="butt" stroke-miterlimit="10" stroke-width="2" d="M18 26c0 1.105-0.895 2-2 2s-2-0.895-2-2c0-1.105 0.895-2 2-2s2 0.895 2 2z"></path>
<path stroke-linejoin="miter" stroke-linecap="butt" stroke-miterlimit="10" stroke-width="2" d="M18 6c0 1.105-0.895 2-2 2s-2-0.895-2-2c0-1.105 0.895-2 2-2s2 0.895 2 2z"></path>
</symbol>
<symbol id="icon-checkmark-outline" viewBox="0 0 32 32">
<path stroke-linejoin="round" stroke-linecap="round" stroke-miterlimit="4" stroke-width="2" d="M26 8l-14 16-6-6"></path>
</symbol>
<symbol id="icon-clipboard-outline" viewBox="0 0 32 32">
<path stroke-linejoin="round" stroke-linecap="butt" stroke-miterlimit="4" stroke-width="2" d="M21 4h2c1.657 0 3 1.343 3 3v0 20c0 1.657-1.343 3-3 3v0h-14c-1.657 0-3-1.343-3-3v0-20c0-1.657 1.343-3 3-3v0h2"></path>
<path stroke-linejoin="round" stroke-linecap="butt" stroke-miterlimit="4" stroke-width="2" d="M12.633 2h6.734c0.902 0 1.633 0.731 1.633 1.633v0.734c0 0.902-0.731 1.633-1.633 1.633h-6.734c-0.902 0-1.633-0.731-1.633-1.633v-0.734c0-0.902 0.731-1.633 1.633-1.633z"></path>
</symbol>
<symbol id="icon-basket-outline" viewBox="0 0 32 32">
<path stroke-linejoin="round" stroke-linecap="butt" stroke-miterlimit="4" stroke-width="2" d="M4.275 12c-0 0-0.001 0-0.001 0-0.7 0-1.267 0.564-1.274 1.262v0.001c-0 0.004-0 0.008-0 0.013 0 0.118 0.018 0.232 0.052 0.339l-0.002-0.008 3.231 11.394c0.309 1.073 1.282 1.844 2.434 1.844 0.003 0 0.007 0 0.010-0h14.549c0.001 0 0.001 0 0.002 0 1.158 0 2.136-0.77 2.449-1.826l0.005-0.018 3.231-11.394 0.038-0.344c-0.006-0.699-0.574-1.262-1.274-1.262-0 0-0.001 0-0.001 0h-23.45zM16.358 22.004c-1.447-0.007-2.616-1.182-2.616-2.629 0-1.452 1.177-2.629 2.629-2.629s2.629 1.177 2.629 2.629v0c-0.007 1.454-1.187 2.629-2.642 2.629-0 0-0 0-0.001 0h0z"></path>
<path stroke-linejoin="round" stroke-linecap="butt" stroke-miterlimit="4" stroke-width="2" d="M10 12l6-8 6 8"></path>
</symbol>
<symbol id="icon-boat-outline" viewBox="0 0 32 32">
<path fill="none" stroke-linejoin="miter" stroke-linecap="butt" stroke-miterlimit="10" stroke-width="2" d="M28.871 16.316c-0.125-0.297-0.419-0.489-0.729-0.593l-11.699-4.655c-0.132-0.043-0.285-0.068-0.443-0.068s-0.31 0.025-0.453 0.070l0.011-0.003-11.688 4.658c-0.313 0.098-0.614 0.298-0.738 0.596s-0.184 0.586-0.063 0.942l2.908 7.447c0.071 0.172 0.238 0.291 0.432 0.291 0.012 0 0.024-0 0.036-0.001l-0.002 0c1.668-0.105 3.144-0.952 4.274-2.031 0.085-0.080 0.201-0.13 0.328-0.13s0.242 0.049 0.328 0.13l-0-0c1.207 1.156 2.814 2.031 4.627 2.031s3.41-0.875 4.618-2.034c0.086-0.080 0.201-0.13 0.328-0.13s0.243 0.049 0.328 0.13l-0-0c1.129 1.080 2.606 1.929 4.274 2.034 0.011 0.001 0.023 0.001 0.035 0.001 0.194 0 0.36-0.118 0.43-0.286l0.001-0.003 2.919-7.448c0.124-0.299 0.062-0.651-0.062-0.949z"></path>
<path d="M26 29.571c-0-0.161-0.089-0.301-0.22-0.374l-0.002-0.001c-1.692-0.909-3.236-2.301-3.914-3-0.115-0.12-0.276-0.195-0.455-0.195-0.127 0-0.244 0.037-0.343 0.102l0.002-0.001c-3.146 2.026-6.976 2.027-10.122 0.003-0.097-0.063-0.215-0.101-0.342-0.101-0.181 0-0.344 0.076-0.459 0.198l-0 0c-0.673 0.705-2.199 2.081-3.902 2.984-0.135 0.069-0.228 0.201-0.243 0.356l-0 0.002c-0.001 0.010-0.001 0.021-0.001 0.033 0 0.232 0.188 0.421 0.421 0.421 0.027 0 0.053-0.003 0.078-0.007l-0.003 0c1.303-0.261 2.563-0.855 3.763-1.489 0.074-0.040 0.161-0.063 0.254-0.063 0.090 0 0.175 0.022 0.249 0.060l-0.003-0.001c1.526 0.793 3.333 1.258 5.247 1.258s3.719-0.465 5.31-1.287l-0.065 0.030c0.073-0.038 0.158-0.060 0.249-0.060 0.094 0 0.182 0.023 0.259 0.065l-0.003-0.001c1.194 0.625 2.451 1.224 3.75 1.488 0.023 0.005 0.050 0.007 0.077 0.007 0.232 0 0.42-0.188 0.42-0.42 0-0.002-0-0.005-0-0.007v0z"></path>
<path fill="none" stroke-linejoin="round" stroke-linecap="round" stroke-miterlimit="4" stroke-width="2" d="M20 6v-1.5c-0.002-0.827-0.673-1.498-1.5-1.5h-5c-0.827 0.002-1.498 0.673-1.5 1.5v1.5"></path>
<path fill="none" stroke-linejoin="round" stroke-linecap="round" stroke-miterlimit="4" stroke-width="2" d="M26 14.563v-5.563c-0.005-1.655-1.345-2.995-3-3h-14c-1.655 0.005-2.995 1.345-3 3v5.75"></path>
<path fill="none" stroke-linejoin="round" stroke-linecap="round" stroke-miterlimit="4" stroke-width="2" d="M16 11.475v13.303"></path>
</symbol>
<symbol id="icon-bulb-outline" viewBox="0 0 32 32">
<path stroke-linejoin="round" stroke-linecap="round" stroke-miterlimit="4" stroke-width="2" d="M19 24v-1.5c0-1.813 1.971-3.527 3.25-4.75 1.802-1.723 2.75-4.038 2.75-6.75 0-5-3.983-9-9-9-0.007-0-0.016-0-0.025-0-4.957 0-8.975 4.018-8.975 8.975 0 0.009 0 0.018 0 0.026v-0.001c0 2.615 0.988 5.087 2.75 6.75 1.272 1.201 3.25 2.919 3.25 4.75v1.5"></path>
<path stroke-linejoin="round" stroke-linecap="round" stroke-miterlimit="4" stroke-width="2" d="M14 30h4"></path>
<path stroke-linejoin="round" stroke-linecap="round" stroke-miterlimit="4" stroke-width="2" d="M13 27h6"></path>
<path stroke-linejoin="round" stroke-linecap="round" stroke-miterlimit="4" stroke-width="2" d="M16 24v-8"></path>
<path stroke-linejoin="round" stroke-linecap="round" stroke-miterlimit="4" stroke-width="2" d="M18.375 15s-1.344 1-2.375 1-2.375-1-2.375-1"></path>
</symbol>
<symbol id="icon-book-outline" viewBox="0 0 32 32">
<path stroke-linejoin="round" stroke-linecap="round" stroke-miterlimit="4" stroke-width="2" d="M16 10c1-3.947 4.777-5.963 13-6 0.001 0 0.002 0 0.004 0 0.55 0 0.996 0.446 0.996 0.996 0 0.001 0 0.003 0 0.004v-0 18c0 0.552-0.448 1-1 1v0c-8 0-11.091 1.613-13 4-1.898-2.375-5-4-13-4-0.618 0-1-0.503-1-1.121v-17.879c0-0.001 0-0.002 0-0.004 0-0.55 0.446-0.996 0.996-0.996 0.001 0 0.003 0 0.004 0h-0c8.223 0.037 12 2.053 13 6z"></path>
<path stroke-linejoin="round" stroke-linecap="round" stroke-miterlimit="4" stroke-width="2" d="M16 10v18"></path>
</symbol>
<symbol id="icon-list-outline" viewBox="0 0 32 32">
<path stroke-linejoin="round" stroke-linecap="round" stroke-miterlimit="4" stroke-width="2" d="M10 9h18"></path>
<path stroke-linejoin="round" stroke-linecap="round" stroke-miterlimit="4" stroke-width="2" d="M10 16h18"></path>
<path stroke-linejoin="round" stroke-linecap="round" stroke-miterlimit="4" stroke-width="2" d="M10 23h18"></path>
<path stroke-linejoin="round" stroke-linecap="round" stroke-miterlimit="4" stroke-width="2" d="M6 9c0 0.552-0.448 1-1 1s-1-0.448-1-1c0-0.552 0.448-1 1-1s1 0.448 1 1z"></path>
<path stroke-linejoin="round" stroke-linecap="round" stroke-miterlimit="4" stroke-width="2" d="M6 16c0 0.552-0.448 1-1 1s-1-0.448-1-1c0-0.552 0.448-1 1-1s1 0.448 1 1z"></path>
<path stroke-linejoin="round" stroke-linecap="round" stroke-miterlimit="4" stroke-width="2" d="M6 23c0 0.552-0.448 1-1 1s-1-0.448-1-1c0-0.552 0.448-1 1-1s1 0.448 1 1z"></path>
</symbol>
</defs>
</svg>
