<svg width="414" height="200" viewBox="0 0 414 200" fill="none" xmlns="http://www.w3.org/2000/svg">
<path fill-rule="evenodd" clip-rule="evenodd" d="M414 72.7041L402.615 68.5746C390.885 64.4451 368.115 56.1861 345 58.2508C321.885 60.3156 299.115 72.7041 276 64.4451C252.885 56.1861 230.115 27.2795 207 12.8262C183.885 -1.62705 161.115 -4.63139 138 7.75713C114.885 20.1457 92.115 44.9227 69 51.117C45.885 57.3112 23.115 44.9227 11.385 38.7284L0 32.5342V200H11.385C23.115 200 45.885 200 69 200C92.115 200 114.885 200 138 200C161.115 200 183.885 200 207 200C230.115 200 252.885 200 276 200C299.115 200 321.885 200 345 200C368.115 200 390.885 200 402.615 200H414V72.7041Z" fill="#EFEFEF"/>
</svg>
