<svg width="414" height="167" viewBox="0 0 414 167" fill="none" xmlns="http://www.w3.org/2000/svg">
<path fill-rule="evenodd" clip-rule="evenodd" d="M-75 18.5556L-64.6833 24.7407C-54.3667 30.9259 -33.7333 43.2963 -13.1 40.2037C7.53333 37.1111 28.1667 18.5556 48.8 21.6481C69.4333 24.7407 90.0667 49.4815 110.7 52.5741C131.333 55.6667 151.967 37.1111 172.6 43.2963C193.233 49.4815 213.867 80.4074 234.5 98.963C255.133 117.519 275.767 123.704 296.4 111.333C317.033 98.963 337.667 68.037 358.3 55.6667C378.933 43.2963 399.567 49.4815 420.2 52.5741C440.833 55.6667 461.467 55.6667 482.1 46.3889C502.733 37.1111 523.367 18.5556 533.683 9.27778L544 0V167H533.683C523.367 167 502.733 167 482.1 167C461.467 167 440.833 167 420.2 167C399.567 167 378.933 167 358.3 167C337.667 167 317.033 167 296.4 167C275.767 167 255.133 167 234.5 167C213.867 167 193.233 167 172.6 167C151.967 167 131.333 167 110.7 167C90.0667 167 69.4333 167 48.8 167C28.1667 167 7.53333 167 -13.1 167C-33.7333 167 -54.3667 167 -64.6833 167H-75V18.5556Z" fill="white"/>
</svg>
